<svg width="144" height="32" viewBox="0 0 144 32" fill="none" xmlns="http://www.w3.org/2000/svg">
<path d="M54.3537 8.58239V17.9716C54.3537 19.946 52.9901 21.3665 50.7741 21.3665C48.5653 21.3665 47.1946 19.946 47.1946 17.9716V8.58239H45V18.1491C45 21.2031 47.2869 23.3693 50.7741 23.3693C54.2614 23.3693 56.5554 21.2031 56.5554 18.1491V8.58239H54.3537Z" fill="#101828"/>
<path d="M61.6992 16.6506C61.6992 14.9105 62.7646 13.9162 64.2418 13.9162C65.6836 13.9162 66.5572 14.8608 66.5572 16.4446V23.1278H68.6808V16.1889C68.6808 13.4901 67.1964 12.0767 64.9663 12.0767C63.3256 12.0767 62.2532 12.8366 61.7489 13.9943H61.614V12.2188H59.5756V23.1278H61.6992V16.6506Z" fill="#101828"/>
<path d="M76.6211 12.2188H74.3839V9.60511H72.2603V12.2188H70.6623V13.9233H72.2603V20.3651C72.2532 22.3466 73.766 23.3054 75.4421 23.2699C76.1168 23.2628 76.5714 23.1349 76.82 23.0426L76.4364 21.2884C76.2944 21.3168 76.0316 21.3807 75.6907 21.3807C75.0018 21.3807 74.3839 21.1534 74.3839 19.9247V13.9233H76.6211V12.2188Z" fill="#101828"/>
<path d="M78.9702 23.1278H81.0938V12.2188H78.9702V23.1278ZM80.0426 10.5355C80.7741 10.5355 81.3849 9.96733 81.3849 9.27131C81.3849 8.57528 80.7741 8 80.0426 8C79.304 8 78.7003 8.57528 78.7003 9.27131C78.7003 9.96733 79.304 10.5355 80.0426 10.5355Z" fill="#101828"/>
<path d="M89.043 12.2188H86.8058V9.60511H84.6822V12.2188H83.0842V13.9233H84.6822V20.3651C84.6751 22.3466 86.1879 23.3054 87.864 23.2699C88.5387 23.2628 88.9933 23.1349 89.2418 23.0426L88.8583 21.2884C88.7163 21.3168 88.4535 21.3807 88.1126 21.3807C87.4237 21.3807 86.8058 21.1534 86.8058 19.9247V13.9233H89.043V12.2188Z" fill="#101828"/>
<path d="M93.75 8.58239H91.6264V23.1278H93.75V8.58239Z" fill="#101828"/>
<path d="M101.309 23.348C103.688 23.348 105.371 22.1761 105.854 20.4006L103.844 20.0384C103.461 21.0682 102.537 21.5938 101.33 21.5938C99.5117 21.5938 98.2901 20.4148 98.2333 18.3125H105.989V17.5597C105.989 13.6179 103.631 12.0767 101.159 12.0767C98.1197 12.0767 96.1168 14.392 96.1168 17.7443C96.1168 21.1321 98.0913 23.348 101.309 23.348ZM98.2404 16.7216C98.3256 15.1733 99.4478 13.831 101.174 13.831C102.821 13.831 103.901 15.0526 103.908 16.7216H98.2404Z" fill="#101828"/>
<path d="M112.429 23.3409C114.418 23.3409 115.199 22.1264 115.582 21.4304H115.76V23.1278H117.834V8.58239H115.71V13.9872H115.582C115.199 13.3125 114.474 12.0767 112.443 12.0767C109.808 12.0767 107.869 14.1577 107.869 17.6946C107.869 21.2244 109.78 23.3409 112.429 23.3409ZM112.898 21.5298C111.001 21.5298 110.014 19.8608 110.014 17.6733C110.014 15.5071 110.98 13.8807 112.898 13.8807C114.751 13.8807 115.746 15.3935 115.746 17.6733C115.746 19.9673 114.73 21.5298 112.898 21.5298Z" fill="#101828"/>
<path d="M135.682 8.58239V17.9716C135.682 19.946 134.318 21.3665 132.102 21.3665C129.893 21.3665 128.523 19.946 128.523 17.9716V8.58239H126.328V18.1491C126.328 21.2031 128.615 23.3693 132.102 23.3693C135.589 23.3693 137.884 21.2031 137.884 18.1491V8.58239H135.682Z" fill="#101828"/>
<path d="M143.269 8.58239H141.074V23.1278H143.269V8.58239Z" fill="#101828"/>
<rect width="32" height="32" rx="8" fill="white"/>
<rect width="32" height="32" rx="8" fill="url(#paint0_linear)"/>
<path fill-rule="evenodd" clip-rule="evenodd" d="M15.9998 2.03861C8.28923 2.03861 2.03861 8.28923 2.03861 15.9998C2.03861 23.7103 8.28923 29.9609 15.9998 29.9609C23.7103 29.9609 29.9609 23.7103 29.9609 15.9998C29.9609 8.28923 23.7103 2.03861 15.9998 2.03861ZM1.96094 15.9998C1.96094 8.24634 8.24634 1.96094 15.9998 1.96094C23.7532 1.96094 30.0386 8.24634 30.0386 15.9998C30.0386 23.7532 23.7532 30.0386 15.9998 30.0386C8.24634 30.0386 1.96094 23.7532 1.96094 15.9998Z" fill="#D0D5DD"/>
<path fill-rule="evenodd" clip-rule="evenodd" d="M16 12.0777C13.8338 12.0777 12.0777 13.8338 12.0777 16C12.0777 18.1662 13.8338 19.9223 16 19.9223C18.1662 19.9223 19.9223 18.1662 19.9223 16C19.9223 13.8338 18.1662 12.0777 16 12.0777ZM12 16C12 13.7909 13.7909 12 16 12C18.2091 12 20 13.7909 20 16C20 18.2091 18.2091 20 16 20C13.7909 20 12 18.2091 12 16Z" fill="#D0D5DD"/>
<path fill-rule="evenodd" clip-rule="evenodd" d="M15.9995 13.3199C14.5196 13.3199 13.3199 14.5196 13.3199 15.9995C13.3199 17.4794 14.5196 18.6791 15.9995 18.6791C17.4794 18.6791 18.6791 17.4794 18.6791 15.9995C18.6791 14.5196 17.4794 13.3199 15.9995 13.3199ZM13.2422 15.9995C13.2422 14.4767 14.4767 13.2422 15.9995 13.2422C17.5223 13.2422 18.7568 14.4767 18.7568 15.9995C18.7568 17.5223 17.5223 18.7568 15.9995 18.7568C14.4767 18.7568 13.2422 17.5223 13.2422 15.9995Z" fill="#D0D5DD"/>
<path d="M15.9609 0H16.0386V32H15.9609V0Z" fill="#D0D5DD"/>
<path d="M32 15.9609L32 16.0386L-3.39506e-09 16.0386L0 15.9609L32 15.9609Z" fill="#D0D5DD"/>
<path d="M26.6016 0H26.6792V32H26.6016V0Z" fill="#D0D5DD"/>
<path d="M10.6406 0H10.7183V32H10.6406V0Z" fill="#D0D5DD"/>
<path d="M21.2812 0H21.3589V32H21.2812V0Z" fill="#D0D5DD"/>
<path d="M5.32031 0H5.39798V32H5.32031V0Z" fill="#D0D5DD"/>
<path d="M32 26.6016L32 26.6792L-3.39506e-09 26.6792L0 26.6016L32 26.6016Z" fill="#D0D5DD"/>
<path d="M32 10.6406L32 10.7183L-3.39506e-09 10.7183L0 10.6406L32 10.6406Z" fill="#D0D5DD"/>
<path d="M32 21.2812L32 21.3589L-3.39506e-09 21.3589L0 21.2812L32 21.2812Z" fill="#D0D5DD"/>
<path d="M32 5.32031L32 5.39798L-3.39506e-09 5.39798L0 5.32031L32 5.32031Z" fill="#D0D5DD"/>
<circle cx="16" cy="16" r="8" fill="url(#paint1_linear)"/>
<defs>
<linearGradient id="paint0_linear" x1="16" y1="0" x2="16" y2="32" gradientUnits="userSpaceOnUse">
<stop stop-color="white"/>
<stop offset="1" stop-color="#D0D5DD"/>
</linearGradient>
<linearGradient id="paint1_linear" x1="12" y1="24" x2="20" y2="8" gradientUnits="userSpaceOnUse">
<stop stop-color="#53389E"/>
<stop offset="1" stop-color="#6941C6"/>
</linearGradient>
</defs>
</svg>
