<svg width="142" height="32" viewBox="0 0 142 32" fill="none" xmlns="http://www.w3.org/2000/svg">
<rect width="32" height="32" rx="8" fill="white"/>
<rect width="32" height="32" rx="8" fill="url(#paint0_linear)"/>
<path fill-rule="evenodd" clip-rule="evenodd" d="M15.9998 2.03861C8.28923 2.03861 2.03861 8.28923 2.03861 15.9998C2.03861 23.7103 8.28923 29.9609 15.9998 29.9609C23.7103 29.9609 29.9609 23.7103 29.9609 15.9998C29.9609 8.28923 23.7103 2.03861 15.9998 2.03861ZM1.96094 15.9998C1.96094 8.24634 8.24634 1.96094 15.9998 1.96094C23.7532 1.96094 30.0386 8.24634 30.0386 15.9998C30.0386 23.7532 23.7532 30.0386 15.9998 30.0386C8.24634 30.0386 1.96094 23.7532 1.96094 15.9998Z" fill="#D0D5DD"/>
<path fill-rule="evenodd" clip-rule="evenodd" d="M16 12.0777C13.8338 12.0777 12.0777 13.8338 12.0777 16C12.0777 18.1662 13.8338 19.9223 16 19.9223C18.1662 19.9223 19.9223 18.1662 19.9223 16C19.9223 13.8338 18.1662 12.0777 16 12.0777ZM12 16C12 13.7909 13.7909 12 16 12C18.2091 12 20 13.7909 20 16C20 18.2091 18.2091 20 16 20C13.7909 20 12 18.2091 12 16Z" fill="#D0D5DD"/>
<path fill-rule="evenodd" clip-rule="evenodd" d="M15.9995 13.3199C14.5196 13.3199 13.3199 14.5196 13.3199 15.9995C13.3199 17.4794 14.5196 18.6791 15.9995 18.6791C17.4794 18.6791 18.6791 17.4794 18.6791 15.9995C18.6791 14.5196 17.4794 13.3199 15.9995 13.3199ZM13.2422 15.9995C13.2422 14.4767 14.4767 13.2422 15.9995 13.2422C17.5223 13.2422 18.7568 14.4767 18.7568 15.9995C18.7568 17.5223 17.5223 18.7568 15.9995 18.7568C14.4767 18.7568 13.2422 17.5223 13.2422 15.9995Z" fill="#D0D5DD"/>
<path d="M15.9609 0H16.0386V32H15.9609V0Z" fill="#D0D5DD"/>
<path d="M32 15.9609L32 16.0386L-3.39506e-09 16.0386L0 15.9609L32 15.9609Z" fill="#D0D5DD"/>
<path d="M26.6016 0H26.6792V32H26.6016V0Z" fill="#D0D5DD"/>
<path d="M10.6406 0H10.7183V32H10.6406V0Z" fill="#D0D5DD"/>
<path d="M21.2812 0H21.3589V32H21.2812V0Z" fill="#D0D5DD"/>
<path d="M5.32031 0H5.39798V32H5.32031V0Z" fill="#D0D5DD"/>
<path d="M32 26.6016L32 26.6792L-3.39506e-09 26.6792L0 26.6016L32 26.6016Z" fill="#D0D5DD"/>
<path d="M32 10.6406L32 10.7183L-3.39506e-09 10.7183L0 10.6406L32 10.6406Z" fill="#D0D5DD"/>
<path d="M32 21.2812L32 21.3589L-3.39506e-09 21.3589L0 21.2812L32 21.2812Z" fill="#D0D5DD"/>
<path d="M32 5.32031L32 5.39798L-3.39506e-09 5.39798L0 5.32031L32 5.32031Z" fill="#D0D5DD"/>
<g filter="url(#filter0_dd)">
<circle cx="16" cy="16" r="8" fill="url(#paint1_linear)"/>
</g>
<path d="M51.3537 8.45348V17.8427C51.3537 19.8171 49.9901 21.2376 47.7741 21.2376C45.5653 21.2376 44.1946 19.8171 44.1946 17.8427V8.45348H42V18.0202C42 21.0742 44.2869 23.2404 47.7741 23.2404C51.2614 23.2404 53.5554 21.0742 53.5554 18.0202V8.45348H51.3537Z" fill="#101828"/>
<path d="M58.6992 16.5217C58.6992 14.7816 59.7646 13.7873 61.2418 13.7873C62.6836 13.7873 63.5572 14.7319 63.5572 16.3157V22.9989H65.6808V16.06C65.6808 13.3611 64.1964 11.9478 61.9663 11.9478C60.3256 11.9478 59.2532 12.7077 58.7489 13.8654H58.614V12.0898H56.5756V22.9989H58.6992V16.5217Z" fill="#101828"/>
<path d="M73.6211 12.0898H71.3839V9.47621H69.2603V12.0898H67.6623V13.7944H69.2603V20.2362C69.2532 22.2177 70.766 23.1765 72.4421 23.141C73.1168 23.1339 73.5714 23.006 73.82 22.9137L73.4364 21.1594C73.2944 21.1879 73.0316 21.2518 72.6907 21.2518C72.0018 21.2518 71.3839 21.0245 71.3839 19.7958V13.7944H73.6211V12.0898Z" fill="#101828"/>
<path d="M75.9702 22.9989H78.0938V12.0898H75.9702V22.9989ZM77.0426 10.4066C77.7741 10.4066 78.3849 9.83842 78.3849 9.1424C78.3849 8.44638 77.7741 7.87109 77.0426 7.87109C76.304 7.87109 75.7003 8.44638 75.7003 9.1424C75.7003 9.83842 76.304 10.4066 77.0426 10.4066Z" fill="#101828"/>
<path d="M86.043 12.0898H83.8058V9.47621H81.6822V12.0898H80.0842V13.7944H81.6822V20.2362C81.6751 22.2177 83.1879 23.1765 84.864 23.141C85.5387 23.1339 85.9933 23.006 86.2418 22.9137L85.8583 21.1594C85.7163 21.1879 85.4535 21.2518 85.1126 21.2518C84.4237 21.2518 83.8058 21.0245 83.8058 19.7958V13.7944H86.043V12.0898Z" fill="#101828"/>
<path d="M90.75 8.45348H88.6264V22.9989H90.75V8.45348Z" fill="#101828"/>
<path d="M98.3086 23.2191C100.688 23.2191 102.371 22.0472 102.854 20.2717L100.844 19.9094C100.461 20.9393 99.5373 21.4648 98.3299 21.4648C96.5117 21.4648 95.2901 20.2859 95.2333 18.1836H102.989V17.4308C102.989 13.489 100.631 11.9478 98.1594 11.9478C95.1197 11.9478 93.1168 14.2631 93.1168 17.6154C93.1168 21.0032 95.0913 23.2191 98.3086 23.2191ZM95.2404 16.5927C95.3256 15.0444 96.4478 13.7021 98.1737 13.7021C99.8214 13.7021 100.901 14.9237 100.908 16.5927H95.2404Z" fill="#101828"/>
<path d="M109.429 23.212C111.418 23.212 112.199 21.9975 112.582 21.3015H112.76V22.9989H114.834V8.45348H112.71V13.8583H112.582C112.199 13.1836 111.474 11.9478 109.443 11.9478C106.808 11.9478 104.869 14.0288 104.869 17.5657C104.869 21.0955 106.78 23.212 109.429 23.212ZM109.898 21.4009C108.001 21.4009 107.014 19.7319 107.014 17.5444C107.014 15.3782 107.98 13.7518 109.898 13.7518C111.751 13.7518 112.746 15.2646 112.746 17.5444C112.746 19.8384 111.73 21.4009 109.898 21.4009Z" fill="#101828"/>
<path d="M132.682 8.45348V17.8427C132.682 19.8171 131.318 21.2376 129.102 21.2376C126.893 21.2376 125.523 19.8171 125.523 17.8427V8.45348H123.328V18.0202C123.328 21.0742 125.615 23.2404 129.102 23.2404C132.589 23.2404 134.884 21.0742 134.884 18.0202V8.45348H132.682Z" fill="#101828"/>
<path d="M140.269 8.45348H138.074V22.9989H140.269V8.45348Z" fill="#101828"/>
<defs>
<filter id="filter0_dd" x="5" y="6" width="22" height="22" filterUnits="userSpaceOnUse" color-interpolation-filters="sRGB">
<feFlood flood-opacity="0" result="BackgroundImageFix"/>
<feColorMatrix in="SourceAlpha" type="matrix" values="0 0 0 0 0 0 0 0 0 0 0 0 0 0 0 0 0 0 127 0" result="hardAlpha"/>
<feOffset dy="1"/>
<feGaussianBlur stdDeviation="1"/>
<feColorMatrix type="matrix" values="0 0 0 0 0.0627451 0 0 0 0 0.0941176 0 0 0 0 0.156863 0 0 0 0.06 0"/>
<feBlend mode="normal" in2="BackgroundImageFix" result="effect1_dropShadow"/>
<feColorMatrix in="SourceAlpha" type="matrix" values="0 0 0 0 0 0 0 0 0 0 0 0 0 0 0 0 0 0 127 0" result="hardAlpha"/>
<feOffset dy="1"/>
<feGaussianBlur stdDeviation="1.5"/>
<feColorMatrix type="matrix" values="0 0 0 0 0.0627451 0 0 0 0 0.0941176 0 0 0 0 0.156863 0 0 0 0.1 0"/>
<feBlend mode="normal" in2="effect1_dropShadow" result="effect2_dropShadow"/>
<feBlend mode="normal" in="SourceGraphic" in2="effect2_dropShadow" result="shape"/>
</filter>
<linearGradient id="paint0_linear" x1="16" y1="0" x2="16" y2="32" gradientUnits="userSpaceOnUse">
<stop stop-color="white"/>
<stop offset="1" stop-color="#D0D5DD"/>
</linearGradient>
<linearGradient id="paint1_linear" x1="12" y1="24" x2="20" y2="8" gradientUnits="userSpaceOnUse">
<stop stop-color="#53389E"/>
<stop offset="1" stop-color="#6941C6"/>
</linearGradient>
</defs>
</svg>
